<?xml version="1.0" encoding="UTF-8" standalone="no"?>
<svg
   width="48"
   height="48"
   viewBox="0 0 48 48"
   fill="none"
   version="1.1"
   id="svg7"
   sodipodi:docname="cerfaFiller.svg"
   inkscape:version="1.4.3 (0d15f75042, 2025-12-25)"
   xmlns:inkscape="http://www.inkscape.org/namespaces/inkscape"
   xmlns:sodipodi="http://sodipodi.sourceforge.net/DTD/sodipodi-0.dtd"
   xmlns="http://www.w3.org/2000/svg"
   xmlns:svg="http://www.w3.org/2000/svg">
  <defs
     id="defs7" />
  <sodipodi:namedview
     id="namedview7"
     pagecolor="#ffffff"
     bordercolor="#000000"
     borderopacity="0.25"
     inkscape:showpageshadow="2"
     inkscape:pageopacity="0.0"
     inkscape:pagecheckerboard="0"
     inkscape:deskcolor="#d1d1d1"
     inkscape:zoom="35.119637"
     inkscape:cx="27.320898"
     inkscape:cy="20.472877"
     inkscape:window-width="2560"
     inkscape:window-height="1403"
     inkscape:window-x="0"
     inkscape:window-y="0"
     inkscape:window-maximized="1"
     inkscape:current-layer="g8" />
  <g
     id="g8"
     transform="matrix(0.86193672,0,0,0.86193672,3.3135187,3.3135187)">
    <path
       fill-rule="evenodd"
       clip-rule="evenodd"
       d="m 13,9 c -0.5523,0 -1,0.44772 -1,1 v 31 c 0,0.5523 0.4477,1 1,1 h 22 c 0.5523,0 1,-0.4477 1,-1 V 10 C 36,9.44772 35.5523,9 35,9 H 29.4167 V 7 H 35 c 1.6569,0 3,1.34314 3,3 v 31 c 0,1.6569 -1.3431,3 -3,3 H 13 c -1.6569,0 -3,-1.3431 -3,-3 V 10 c 0,-1.65685 1.3431,-3 3,-3 h 5.5833 v 2 z"
       fill="#333333"
       id="path1" />
    <path
       fill-rule="evenodd"
       clip-rule="evenodd"
       d="m 17,7 c 0,-1.65685 1.3431,-3 3,-3 h 8 c 1.6569,0 3,1.34315 3,3 v 2 c 0,1.6569 -1.3431,3 -3,3 h -8 c -1.6569,0 -3,-1.3431 -3,-3 z m 3,-1 c -0.5523,0 -1,0.44772 -1,1 v 2 c 0,0.55228 0.4477,1 1,1 h 8 c 0.5523,0 1,-0.44772 1,-1 V 7 C 29,6.44772 28.5523,6 28,6 Z"
       fill="#333333"
       id="path2" />
    <path
       fill-rule="evenodd"
       clip-rule="evenodd"
       d="m 15,21 c 0,-0.5523 0.4477,-1 1,-1 h 7 c 0.5523,0 1,0.4477 1,1 0,0.5523 -0.4477,1 -1,1 h -7 c -0.5523,0 -1,-0.4477 -1,-1 z"
       fill="#333333"
       id="path3" />
    <path
       fill-rule="evenodd"
       clip-rule="evenodd"
       d="m 15,16 c 0,-0.5523 0.4477,-1 1,-1 h 15.5 c 0.5523,0 1,0.4477 1,1 0,0.5523 -0.4477,1 -1,1 H 16 c -0.5523,0 -1,-0.4477 -1,-1 z"
       fill="#333333"
       id="path4" />
    <path
       fill-rule="evenodd"
       clip-rule="evenodd"
       d="m 28,29 c 0.5529,0 1,-0.4471 1,-1 0,-0.5529 -0.4471,-1 -1,-1 -0.5529,0 -1,0.4471 -1,1 0,0.5529 0.4471,1 1,1 z m 0,2 c 1.6575,0 3,-1.3425 3,-3 0,-1.6575 -1.3425,-3 -3,-3 -1.6575,0 -3,1.3425 -3,3 0,1.6575 1.3425,3 3,3 z"
       fill="#333333"
       id="path6" />
    <path
       fill-rule="evenodd"
       clip-rule="evenodd"
       d="m 24,35.2793 c 0.0127,-0.0148 0.0305,-0.0342 0.0549,-0.0581 0.1637,-0.1602 0.4804,-0.3724 0.9763,-0.583 C 26.0311,34.2133 27.2648,34 28,34 c 0.7352,0 1.9689,0.2133 2.9688,0.6382 0.4959,0.2106 0.8126,0.4228 0.9763,0.583 0.0244,0.0239 0.0422,0.0433 0.0549,0.0581 V 37 H 24 Z M 28,32 c -2.0025,0 -6,1.0659 -6,3.1818 V 39 H 34 V 35.1818 C 34,33.0659 30.0025,32 28,32 Z"
       fill="#333333"
       id="path7" />
    <path
       d="m 18.914686,24.30294 c 0.41251,0 0.800269,0.04538 1.163278,0.136128 0.363009,0.09075 0.713642,0.235131 1.0519,0.433136 0.306508,0.195667 0.444644,1.093949 -0.457886,0.891022 -0.231005,-0.123753 -0.503262,-0.239256 -0.81677,-0.346509 -0.305257,-0.107253 -0.618765,-0.160879 -0.940522,-0.160879 -0.305258,0 -0.585765,0.0495 -0.841521,0.148504 -0.255756,0.09075 -0.482636,0.23513 -0.680641,0.433135 -0.189755,0.198005 -0.354759,0.445511 -0.495012,0.742518 -0.140253,0.297007 -0.247506,0.643516 -0.321758,1.039526 h 3.019573 c 0.646936,0.03964 0.564348,0.828072 0,0.804394 h -3.1062 c -0.0083,0.0825 -0.01238,0.160879 -0.01238,0.235131 v 0.235131 0.247506 c 0,0.0825 0.0041,0.169129 0.01238,0.259881 h 2.734941 c 0.72677,0.09745 0.72677,0.770261 0,0.804394 h -2.635939 c 0.099,0.462011 0.251631,0.858021 0.457886,1.188029 0.206255,0.330008 0.474387,0.581639 0.804395,0.754894 0.330008,0.173254 0.717767,0.259881 1.163278,0.259881 0.321758,0 0.643516,-0.03713 0.965273,-0.111378 0.330008,-0.0825 0.62289,-0.177379 0.878647,-0.284632 0.580089,-0.209666 0.679366,0.736953 0,0.965274 -0.255757,0.107253 -0.540389,0.198005 -0.853896,0.272256 -0.305257,0.0825 -0.655891,0.123753 -1.051901,0.123753 -0.668266,0 -1.23753,-0.127878 -1.707791,-0.383634 -0.470261,-0.255756 -0.849771,-0.618765 -1.138528,-1.089026 -0.288757,-0.478512 -0.495012,-1.043651 -0.618765,-1.695417 h -0.990024 c -0.568409,0.01023 -0.521691,-0.824361 0,-0.804394 h 0.891022 c -0.0083,-0.099 -0.01238,-0.181505 -0.01238,-0.247506 v -0.259881 -0.259882 c 0.0083,-0.09075 0.01238,-0.160879 0.01238,-0.21038 h -0.891022 c -0.564516,-0.01118 -0.523637,-0.781535 0,-0.804394 h 0.977649 c 0.107253,-0.676517 0.305257,-1.262281 0.594014,-1.757293 0.288757,-0.495012 0.672392,-0.878646 1.150903,-1.150903 0.478512,-0.272257 1.043651,-0.408385 1.695417,-0.408385 z"
       id="text8"
       style="font-size:12.3753px;fill:#333333;stroke-width:2.32036;stroke-linecap:round"
       aria-label="€"
       sodipodi:nodetypes="sscccsccsccccscsccccsssccccsscccccsccccccsss" />
  </g>
  <circle
     style="fill:none;stroke:#333333;stroke-width:1.5;stroke-linecap:round;stroke-dasharray:none;stroke-opacity:1;fill-opacity:1"
     id="path8"
     r="22.95302"
     cy="24"
     cx="24" />
</svg>
